<svg viewBox="0 0 96 96" xmlns="http://www.w3.org/2000/svg" xmlns:xlink="http://www.w3.org/1999/xlink" id="Icons_Stopwatch1_M" overflow="hidden"><style>
.MsftOfcThm_Text2_Fill_v2 {
 fill:#3D3D3D; 
}
</style>
<path d="M69.456 27.958 73.707 23.707C74.0907 23.3097 74.0797 22.6767 73.6824 22.293 73.2949 21.9187 72.6805 21.9187 72.293 22.293L67.893 26.693C62.4442 22.5556 55.8387 20.2243 49 20.025L49 14 59 14 59 12 37 12 37 14 47 14 47 20.025C28.7619 20.557 14.4083 35.7731 14.9403 54.0112 15.4723 72.2493 30.6885 86.6029 48.9265 86.0709 67.1646 85.5389 81.5182 70.3228 80.9862 52.0847 80.7147 42.7769 76.5278 34.0159 69.456 27.958ZM48 84C30.8792 84 17 70.1208 17 53 17 35.8792 30.8792 22 48 22 65.1208 22 79 35.8792 79 53 78.9802 70.1126 65.1126 83.9802 48 84Z" class="MsftOfcThm_Text2_Fill_v2" fill="#3D3D3D"/><path d="M49 47.1 49 26 47 26 47 47.1C44.2944 47.6523 42.5487 50.2933 43.101 52.999 43.6533 55.7046 46.2944 57.4502 49 56.898 51.7056 56.3457 53.4513 53.7046 52.899 50.999 52.4982 49.0354 50.9636 47.5008 49 47.1ZM48 55C46.3431 55 45 53.6569 45 52 45 50.3431 46.3431 49 48 49 49.6569 49 51 50.3431 51 52 51 53.6569 49.6569 55 48 55Z" class="MsftOfcThm_Text2_Fill_v2" fill="#3D3D3D"/></svg>