<svg viewBox="0 0 96 96" xmlns="http://www.w3.org/2000/svg" xmlns:xlink="http://www.w3.org/1999/xlink" id="Icons_DownwardTrend_LTR_M" overflow="hidden"><style>
.MsftOfcThm_Text2_Fill_v2 {
 fill:#3D3D3D; 
}
</style>
<g id="Icons"><path d="M79.707 55 79.707 63.565C79.7069 63.5705 79.7024 63.5749 79.6969 63.5749 79.6943 63.5748 79.6918 63.5738 79.69 63.572L61.669 45.55 56.356 50.237 51.7 45.579 44.268 38.354 38.968 43.281 24.708 29.026 23.294 30.44 38.912 46.059 44.234 41.113 50.294 47 56.271 52.977 61.583 48.289 78.273 64.98C78.2769 64.9839 78.2768 64.9903 78.2729 64.9941 78.271 64.9959 78.2686 64.997 78.266 64.997L69.734 64.997 69.734 66.997 81.707 66.997 81.707 55Z" class="MsftOfcThm_Text2_Fill_v2" fill="#3D3D3D"/><path d="M81.971 82 14 82 14 14 16 14 16 80 81.971 80 81.971 82Z" class="MsftOfcThm_Text2_Fill_v2" fill="#3D3D3D"/></g></svg>